<svg xmlns="http://www.w3.org/2000/svg" width="48" height="48" viewBox="0 4 48 40">
    <g transform="translate(-404 -4173)">
        <g transform="translate(397.409 4166.408)">
            <path d="M35.69 22.944a3.824 3.824 0 1 1 3.824 3.824 3.824 3.824 0 0 1-3.824-3.824z"/>
            <path d="M18.527 11.876a139.311 139.311 0 0 1 24.129 0l3.85.335a8 8 0 0 1 7.218 6.78 78.018 78.018 0 0 1 0 23.2 8 8 0 0 1-7.218 6.78l-3.85.334a139.281 139.281 0 0 1-24.129 0l-3.85-.334a8 8 0 0 1-7.218-6.78 78.011 78.011 0 0 1 0-23.2 8 8 0 0 1 7.218-6.78zm23.8 3.81a135.485 135.485 0 0 0-23.467 0l-3.85.335a4.176 4.176 0 0 0-3.77 3.539 74.187 74.187 0 0 0-.794 13.177l9.871-9.87a1.912 1.912 0 0 1 2.781.082l9.36 10.53 6.452-2.151a1.912 1.912 0 0 1 2.026.535l8.971 9.968q.021-.1.036-.206a74.187 74.187 0 0 0 0-22.064 4.176 4.176 0 0 0-3.768-3.539zm5.143 29.151l-8.54-9.486-6.459 2.149a1.912 1.912 0 0 1-2.034-.544L21.587 27 10.769 37.823q.187 1.9.472 3.8a4.176 4.176 0 0 0 3.768 3.539l3.85.335a135.5 135.5 0 0 0 23.467 0l3.85-.335a4.169 4.169 0 0 0 1.292-.325z"/>
        </g>
    </g>
</svg>
