<svg xmlns="http://www.w3.org/2000/svg" xmlns:xlink="http://www.w3.org/1999/xlink" width="60" height="60" viewBox="0 0 60 60"><defs><style>.a{fill:#fff;}.b{clip-path:url(#a);}</style><clipPath id="a"><rect class="a" width="60" height="60" transform="translate(36 247)"/></clipPath></defs><g class="b" transform="translate(-36 -247)"><path class="a" d="M19.727,6.691,3.912,22.506l28.8,38.113a.836.836,0,0,0,.15.2l.6.791.6-.791a.836.836,0,0,0,.149-.2l28.107-37.2h1.6L47.185,6.691H19.727Zm1.266,1.673H33.008L43.6,24.255H35.129a.836.836,0,1,0,0,1.673h10.1l.021,0a.836.836,0,0,0,.095-.015l14.645-2.2L35.862,55.646,40.9,40.537a.846.846,0,1,0-1.588-.526L33.165,58.446l-.629-.833.475-.239.132-.737-.513-.547-.289-.052-.671.337-.013.075L6.92,23.713l14.2,2.13L25.93,40.289a.846.846,0,1,0,1.589-.524l-4.85-14.55,5.286-7.928a.843.843,0,1,0-1.4-.916l-4.2,6.3Zm14.026,0h10.9l-1.362,14.3ZM19.409,9.375l1.4,14.732L6.781,22Zm28.094,0L60.129,22,46.1,24.105Zm-16.092.382-.67.337-.132.737.513.547.289.052.671-.335.131-.738L31.7,9.81Zm-2.044,3.066-.67.337-.132.738.511.547.291.051.67-.335.132-.738-.513-.547ZM25.092,24.255l-.67.337-.132.737.511.547.291.052.67-.337.132-.737-.511-.547Zm3.346,0-.67.337-.132.737.511.547.291.052.67-.337.132-.737-.511-.547Zm3.346,0-.67.337-.132.737.511.547.291.052.67-.337.132-.737-.511-.547Zm12.379,3.011-.671.337-.131.737.511.547.291.052.67-.335.132-.738-.513-.547Zm-1,3.011-.67.337-.132.738.513.547.289.051.67-.335.132-.738-.511-.547Zm-1,3.012-.67.335-.132.738.511.547.291.052.67-.337.132-.738-.513-.547Zm-1,3.011-.67.335-.132.738.513.547.289.052.671-.337.131-.737-.511-.547ZM27.88,42.656l-.67.335-.132.738.511.547.291.052.67-.337.132-.737-.513-.547ZM28.995,46l-.67.335-.132.738.513.547.289.052.671-.337L29.8,46.6l-.511-.547Zm1.116,3.346-.67.337-.132.737.513.547.289.052.67-.337.132-.737L30.4,49.4Zm1.116,3.346-.67.337-.132.737.511.547.291.052.67-.337.132-.737-.513-.547Z" transform="translate(32.088 242.851)"/></g></svg>