<svg xmlns="http://www.w3.org/2000/svg" width="36" height="36" viewBox="0 0 36 36">
    <g transform="translate(-296 -423)">
        <path d="M12 20.258a35.387 35.387 0 0 0 18.337 17.8l.026.011 1.57.7a4.624 4.624 0 0 0 5.631-1.516l2.619-3.625a.514.514 0 0 0-.094-.7l-4.569-3.685a.514.514 0 0 0-.736.094L33 31.739a1.542 1.542 0 0 1-1.874.487 27.517 27.517 0 0 1-13.705-13.71 1.542 1.542 0 0 1 .487-1.874l2.4-1.78a.514.514 0 0 0 .094-.735l-3.688-4.574a.514.514 0 0 0-.7-.094l-3.645 2.631a4.625 4.625 0 0 0-1.5 5.664L12 20.256zM29.124 40.9A38.469 38.469 0 0 1 9.2 21.542v-.005L8.059 19.03a7.708 7.708 0 0 1 2.505-9.439l3.645-2.631a3.6 3.6 0 0 1 4.9.658l3.691 4.573a3.6 3.6 0 0 1-.658 5.148l-1.376 1.02a24.442 24.442 0 0 0 10.522 10.518l1.02-1.376a3.6 3.6 0 0 1 5.148-.658l4.573 3.689a3.6 3.6 0 0 1 .657 4.906l-2.619 3.625a7.707 7.707 0 0 1-9.384 2.526z" transform="translate(288.633 416.732)"/>
    </g>
</svg>
