<svg xmlns="http://www.w3.org/2000/svg" width="60" height="60" viewBox="0 0 60 60">
<g class="b" transform="translate(-36 -247)"><path class="a" d="M47.953,8.58a9.964,9.964,0,0,0-9.676,7.649h0c-.048.2-.83,3.152-1.566,6.317-.382,1.642-.757,3.332-1.035,4.85-3.406,3.4-6.228,6.014-8.636,8.11A.953.953,0,1,0,28.3,36.944c2.01-1.75,4.312-3.872,6.971-6.468-.009.17-.022.346-.022.5a9.966,9.966,0,0,0,9.943,9.944c.15,0,.324-.012.492-.02A137.036,137.036,0,0,0,33.4,54.9,33.818,33.818,0,0,1,20.084,65.558c-.8.351-1.528.64-2.111.836a5.773,5.773,0,0,1-1.143.279,7.314,7.314,0,0,1-4.759-1.75s-.007-.009-.011-.013-.013,0-.019-.009a.953.953,0,1,0-1.221,1.462,9.229,9.229,0,0,0,6.01,2.218,5.471,5.471,0,0,0,1.748-.378c.666-.223,1.436-.531,2.272-.9A35.717,35.717,0,0,0,34.916,56.053,141.287,141.287,0,0,1,48.763,40.482c1.518-.279,3.208-.653,4.85-1.035,3.165-.736,6.115-1.516,6.317-1.564a9.965,9.965,0,0,0,7.649-9.676,11.162,11.162,0,0,0-.369-2.685l0-.007a10.07,10.07,0,0,0-2.4-4.187.954.954,0,0,0-1.644.627c0,.005,0,.01,0,.015a.953.953,0,0,0,.061.35v0l0,0a.954.954,0,0,0,.2.317,8.185,8.185,0,0,1,1.948,3.392l0,0a10.044,10.044,0,0,1,.3,2.173,8.047,8.047,0,0,1-6.182,7.82l0,0c-.466.111-3.177.834-6.308,1.562a53.415,53.415,0,0,1-8,1.421,8.035,8.035,0,0,1-8.036-8.038,53.353,53.353,0,0,1,1.419-8c.728-3.131,1.451-5.841,1.562-6.306l0,0a8.048,8.048,0,0,1,7.82-6.183,9.615,9.615,0,0,1,2.175.3,7.621,7.621,0,0,1,2.657,1.395.953.953,0,1,0,1.2-1.482,9.5,9.5,0,0,0-3.333-1.746l-.007,0A10.919,10.919,0,0,0,47.953,8.58ZM56.021,12.9a.949.949,0,0,0-.674.279.962.962,0,0,0,.009,1.354.981.981,0,0,0,.668.276.928.928,0,0,0,.676-.285.948.948,0,0,0,0-1.344A.968.968,0,0,0,56.021,12.9ZM48.1,14.113a4.39,4.39,0,1,0,4.374,4.39A4.4,4.4,0,0,0,48.1,14.113ZM58.738,15.6a.951.951,0,0,0-.672,1.622.951.951,0,0,0,1.342,0,.951.951,0,0,0-.67-1.622ZM48.1,16.02A2.484,2.484,0,1,1,45.634,18.5,2.462,2.462,0,0,1,48.1,16.02ZM61.439,18.3a.946.946,0,0,0-.676.279.952.952,0,0,0,.667,1.629.97.97,0,0,0,.676-.276.948.948,0,0,0,0-1.344h.011A.951.951,0,0,0,61.439,18.3Zm-3.767,5.439a4.39,4.39,0,1,0,4.374,4.39A4.4,4.4,0,0,0,57.673,23.739Zm0,1.907a2.484,2.484,0,1,1-2.465,2.484A2.462,2.462,0,0,1,57.673,25.646Zm-12.307.843a4.391,4.391,0,1,0,4.372,4.392A4.4,4.4,0,0,0,45.365,26.489Zm0,1.907A2.485,2.485,0,1,1,42.9,30.88,2.462,2.462,0,0,1,45.365,28.4Zm-20.28,9.151a.964.964,0,0,0-.7.212.95.95,0,0,0,.6,1.689.978.978,0,0,0,.611-.22.961.961,0,0,0,.123-1.344A.917.917,0,0,0,25.085,37.547Zm-2.957,2.374a.954.954,0,1,0-.117,1.9.954.954,0,0,0,.754-1.534A.953.953,0,0,0,22.129,39.921Zm9.747.125a2.351,2.351,0,0,0-1.668.685L23.57,47.369a2.374,2.374,0,0,0,0,3.337l1.989,1.989a2.375,2.375,0,0,0,3.338,0l6.638-6.638a2.374,2.374,0,0,0,0-3.337l-1.989-1.989A2.353,2.353,0,0,0,31.876,40.046Zm0,1.894a.453.453,0,0,1,.32.14l1.99,1.989v0a.439.439,0,0,1,0,.64l-2.56,2.56L29,44.639l2.56-2.56A.451.451,0,0,1,31.876,41.939Zm-12.793.33a.95.95,0,0,0-.808,1.562.938.938,0,0,0,.734.344.919.919,0,0,0,.611-.229.952.952,0,0,0-.536-1.678Zm-2.869,2.618a.957.957,0,0,0-.627,1.652.946.946,0,0,0,.657.259.936.936,0,0,0,.687-.305.952.952,0,0,0-.717-1.6Zm11.434,1.1,2.629,2.631-2.728,2.728a.438.438,0,0,1-.64,0l-1.99-1.989a.438.438,0,0,1,0-.64Zm-14,1.821a.956.956,0,0,0-.449,1.706.936.936,0,0,0,.583.19.953.953,0,0,0,.572-1.715A.948.948,0,0,0,13.652,47.808Zm-1.866,3.163a.952.952,0,0,0-.613,1.763.876.876,0,0,0,.486.134.947.947,0,0,0,.819-.467.952.952,0,0,0-.693-1.43ZM9.922,54.347a.931.931,0,0,0-.886.562.955.955,0,0,0,.858,1.344.953.953,0,0,0,.4-1.821A.975.975,0,0,0,9.922,54.347Zm-1.53,3.593a.955.955,0,0,0-.747.743A.966.966,0,0,0,8.4,59.81a1.269,1.269,0,0,0,.19.019.965.965,0,0,0,.935-.773.959.959,0,0,0-1.132-1.115Zm.8,3.7a.914.914,0,0,0-.367.078.953.953,0,0,0,.371,1.83,1.036,1.036,0,0,0,.372-.076.954.954,0,0,0-.376-1.832Z" transform="translate(28.396 238.42)"/></g></svg>