<svg xmlns="http://www.w3.org/2000/svg" width="24" height="24" viewBox="0 0 24 24">
    <g transform="translate(-40 -707)">
        <path fill-rule="evenodd" d="M6.413 15.581a.88.88 0 0 0 .156.037l.216.508c.209.493.49 1.159.781 1.854.593 1.418 1.19 2.879 1.322 3.3a3.5 3.5 0 0 0 .525 1.109 1.338 1.338 0 0 0 .342.315 1.039 1.039 0 0 0 .21.1h.01a1.391 1.391 0 0 0 .937.011 1.549 1.549 0 0 0 .275-.124c.034-.019.062-.038.085-.053h.005l3.334-2.079 3.851 2.953a.887.887 0 0 0 .185.109 2.474 2.474 0 0 0 1.332.215 2.037 2.037 0 0 0 1-.433 2.353 2.353 0 0 0 .511-.575 2.321 2.321 0 0 0 .12-.212l.034-.072.011-.026v-.01a.883.883 0 0 0 .046-.156l3.527-17.739a.888.888 0 0 0 .017-.172 1.5 1.5 0 0 0-.655-1.312 1.775 1.775 0 0 0-1.108-.246 3.417 3.417 0 0 0-.759.155c-.1.031-.177.06-.235.083l-.071.028-.013.006L2.685 10.89l-.048.018c-.038.015-.089.036-.149.063a2.976 2.976 0 0 0-.448.25 1.623 1.623 0 0 0-.781 1.516A1.857 1.857 0 0 0 2.069 14a2.739 2.739 0 0 0 .4.234c.049.023.15.064.194.082h.011zm16.68-10.8l-.03.012-19.745 7.749-.031.012h-.011l-.061.026-.047.022c.022.013.043.023.062.032l.039.018L6.978 13.9a.885.885 0 0 1 .189.09l12.242-7.163.011-.007.035-.02c.028-.016.066-.037.112-.06a2.419 2.419 0 0 1 .374-.155 1.276 1.276 0 0 1 .761-.017 1.007 1.007 0 0 1 .568.457 1.04 1.04 0 0 1 .126.356.991.991 0 0 1 0 .5 1.646 1.646 0 0 1-.516.77c-.177.166-2.472 2.379-4.736 4.563l-3.08 2.976-.549.53 6.928 5.311a.632.632 0 0 0 .3.048.27.27 0 0 0 .137-.062.584.584 0 0 0 .12-.141l3.41-17.194c-.051.012-.1.027-.151.042s-.1.035-.132.047l-.032.013zm-9.982 14.625l-1.382-1.06-.335 2.13zm-2.65-3.162l1.374-1.327 3.082-2.975 1.147-1.107-7.692 4.5.041.1c.21.494.492 1.164.784 1.863.218.523.447 1.073.655 1.582l.334-2.124a.881.881 0 0 1 .275-.512z" transform="translate(38.755 705.636)"/>
    </g>
</svg>
