<svg xmlns="http://www.w3.org/2000/svg" width="24" height="24" viewBox="0 0 24 24">
    <defs>
        <clipPath id="epmrqkkg6a">
            <path fill="#fff" d="M0 0H24V24H0z" transform="translate(368 664)"/>
        </clipPath>
    </defs>
    <g clip-path="url(#epmrqkkg6a)" transform="translate(-368 -664)">
        <path fill="#fff" fill-rule="evenodd" d="M9.375 4.353a1 1 0 0 1 1 1V7.59a64.165 64.165 0 0 1 11.384 0V5.357a1 1 0 0 1 2.009 0V7.79a4.52 4.52 0 0 1 3.847 3.882l.116.874a38.831 38.831 0 0 1-.125 11.073 4.03 4.03 0 0 1-3.587 3.391l-1.6.158a64.746 64.746 0 0 1-12.707 0l-1.6-.158a4.03 4.03 0 0 1-3.587-3.391A38.831 38.831 0 0 1 4.4 12.546l.116-.874A4.52 4.52 0 0 1 8.37 7.79V5.357a1 1 0 0 1 1.005-1.004zm.6 5.294a62.158 62.158 0 0 1 12.2 0l1.213.12a2.511 2.511 0 0 1 2.243 2.169l.116.874q.061.458.11.918H6.289q.049-.459.11-.918l.116-.874a2.512 2.512 0 0 1 2.243-2.17zM6.13 15.736a36.822 36.822 0 0 0 .388 7.574 2.022 2.022 0 0 0 1.8 1.7l1.6.157a62.726 62.726 0 0 0 12.313 0l1.6-.157a2.022 2.022 0 0 0 1.8-1.7 36.819 36.819 0 0 0 .388-7.574z" transform="translate(363.929 660.084)"/>
    </g>
</svg>
