<svg xmlns="http://www.w3.org/2000/svg" xmlns:xlink="http://www.w3.org/1999/xlink" width="188" height="48" viewBox="0 0 188 48">
    <defs>
        <radialGradient id="radial-gradient" cx="1.048" cy="-.458" r="1.193" gradientTransform="matrix(3.177 0 0 1 -1.089 0)" gradientUnits="objectBoundingBox">
            <stop offset="0"/>
            <stop offset="1" stop-color="#8651a7" stop-opacity="0"/>
        </radialGradient>
        <radialGradient id="radial-gradient-3" cx="-.278" cy="-.955" r="2.956" gradientTransform="matrix(.56 0 0 1 .22 0)" xlink:href="#radial-gradient"/>
    </defs>
    <g id="logo" transform="translate(16 -135.991)">
        <g id="Group_3" transform="translate(62 142.71)">
            <path id="Path_14" d="M206.223 289.772v16.415h-4.459v-11.18l-5.045 8.159h-.5l-5.045-8.159v11.18h-4.459v-16.415a2.836 2.836 0 0 1 2.857-2.816 2.865 2.865 0 0 1 2.437 1.348l4.46 7.2 4.46-7.2a2.865 2.865 0 0 1 2.437-1.348 2.836 2.836 0 0 1 2.857 2.816z" fill="#ff1453" transform="translate(-186.714 -286.572)"/>
            <path id="Path_15" d="M220.774 301.957h7.8v4.23h-12.259v-19.231h12.124v4.231h-7.665v3.187h6.969v4.176h-6.969z" fill="#ff1453" transform="translate(-193.461 -286.572)"/>
            <path id="Path_16" d="M243.25 286.956a9.1 9.1 0 0 1 6.759 2.762 10 10 0 0 1 0 13.708 9.1 9.1 0 0 1-6.759 2.761h-7.8v-19.231zm0 15a5.01 5.01 0 0 0 3.749-1.47 6.057 6.057 0 0 0 0-7.83 5.007 5.007 0 0 0-3.749-1.47h-3.345v10.77z" fill="#ff1453" transform="translate(-197.822 -286.572)"/>
            <path id="Path_17" d="M273.641 306.451a9.041 9.041 0 0 1-4.974-1.278 6.973 6.973 0 0 1-2.829-3.476l3.846-2.2a4.142 4.142 0 0 0 4.1 2.664q2.647 0 2.647-1.565a1.476 1.476 0 0 0-.85-1.333 15.789 15.789 0 0 0-3.191-1.113 14.337 14.337 0 0 1-2.146-.742 8.992 8.992 0 0 1-1.8-1.085 4.366 4.366 0 0 1-1.338-1.69 5.609 5.609 0 0 1-.46-2.336 5.23 5.23 0 0 1 1.937-4.257 7.031 7.031 0 0 1 4.613-1.594 8.023 8.023 0 0 1 4.236 1.113 7.679 7.679 0 0 1 2.9 3.228l-3.762 2.171a4.281 4.281 0 0 0-1.31-1.662 3.446 3.446 0 0 0-2.062-.563 2.467 2.467 0 0 0-1.547.425 1.275 1.275 0 0 0-.544 1.03 1.525 1.525 0 0 0 .683 1.237 9.85 9.85 0 0 0 2.829 1.154q1.17.357 1.811.577a13.179 13.179 0 0 1 1.631.728 4.558 4.558 0 0 1 2.424 2.556 5.666 5.666 0 0 1-1.6 6.428 8.219 8.219 0 0 1-5.244 1.583z" fill="#ff1453" opacity="0.6" transform="translate(-204.75 -286.451)"/>
            <path id="Path_18" d="M295.424 286.956a6.7 6.7 0 0 1 4.849 1.923 6.5 6.5 0 0 1 0 9.341 6.692 6.692 0 0 1-4.849 1.923H292.5v6.043h-4.459v-19.23zm0 9.066a2.225 2.225 0 0 0 1.7-.715 2.644 2.644 0 0 0 0-3.517 2.227 2.227 0 0 0-1.7-.713H292.5v4.944z" fill="#ff1453" opacity="0.6" transform="translate(-209.811 -286.572)"/>
            <path id="Path_19" d="M319.029 306.187l-1.045-3.021h-7.5l-.976 3.021h-4.877l6.633-19.231h5.685l6.647 19.231zm-7.2-7.142h4.728l-2.443-7.061z" fill="#ff1453" opacity="0.6" transform="translate(-213.592 -286.572)"/>
            <path id="Path_20" d="M186.729 296.659c0 .307-.007.594-.015.88v10.3h4.459v-11.18s-4.444-6.27-4.444 0z" fill="url(#radial-gradient)" opacity="0.5" transform="translate(-186.714 -288.224)"/>
            <path id="Path_21" d="M210.651 296.659c0 .307.008.594.015.88v10.3h-4.459v-11.18s4.444-6.27 4.444 0z" fill="url(#radial-gradient)" opacity="0.5" transform="translate(-191.158 -288.224)"/>
            <path id="Rectangle_1" d="M4.23 0H7.8v4.23H0A4.23 4.23 0 0 1 4.23 0z" fill="url(#radial-gradient-3)" opacity="0.5" transform="translate(27.313 15.385)"/>
            <path id="Rectangle_2" d="M4.23 0h3.435v4.23H0A4.23 4.23 0 0 1 4.23 0z" fill="url(#radial-gradient-3)" opacity="0.5" transform="translate(27.313 .384)"/>
            <g id="Group_2" opacity="0.5" transform="translate(45.428 4.615)">
                <path id="Path_22" fill="#e30613" d="M245.6 292.517h-.046z" transform="translate(-245.554 -292.515)"/>
                <path id="Path_23" fill="url(#radial-gradient)" d="M247.081 292.76a4.712 4.712 0 0 1 2.227 1.284 6.056 6.056 0 0 1 0 7.829 5.005 5.005 0 0 1-3.733 1.47l1.225 4.157a8.94 8.94 0 0 0 5.513-2.683 9.327 9.327 0 0 0 1.777-2.522c.012-.094.028-.181.039-.277.847-6.882-4.366-8.752-7.048-9.258z" opacity="0.7" transform="translate(-245.559 -292.574)"/>
            </g>
        </g>
        <g id="Group_4" transform="translate(62 168.382)">
            <path id="Path_24" d="M225.437 330l-3.346-9.266h1.338l2.719 7.727 2.7-7.727h1.352L226.842 330z" fill="#ff1453" transform="translate(-222.091 -320.564)"/>
            <path id="Path_25" d="M240.233 328.736a4.924 4.924 0 0 1-6.885 0 4.828 4.828 0 0 1 0-6.809 4.94 4.94 0 0 1 6.885 0 4.812 4.812 0 0 1 0 6.809zm-6.022-.841a3.7 3.7 0 1 0-1.038-2.561 3.491 3.491 0 0 0 1.038 2.566z" fill="#ff1453" transform="translate(-223.645 -320.53)"/>
            <path id="Path_26" d="M248.9 320.736a4.184 4.184 0 0 1 3.178 1.344 4.909 4.909 0 0 1 0 6.579A4.178 4.178 0 0 1 248.9 330h-3.654v-9.266zm0 8.1a3.031 3.031 0 0 0 2.341-.993 3.822 3.822 0 0 0 0-4.95 3.031 3.031 0 0 0-2.341-.993h-2.41v6.936z" fill="#ff1453" transform="translate(-225.743 -320.564)"/>
            <path id="Path_27" d="M264.352 328.736a4.924 4.924 0 0 1-6.885 0 4.828 4.828 0 0 1 0-6.809 4.941 4.941 0 0 1 6.885 0 4.81 4.81 0 0 1 0 6.809zm-6.022-.841a3.7 3.7 0 1 0-1.037-2.561 3.493 3.493 0 0 0 1.037 2.566z" fill="#ff1453" transform="translate(-227.45 -320.53)"/>
            <path id="Path_28" d="M270.605 328.837h4.042V330h-5.286v-9.266h1.244z" fill="#ff1453" transform="translate(-229.548 -320.564)"/>
            <path id="Path_29" d="M278.359 328.837h4.35V330h-5.594v-9.266h5.527v1.166h-4.283v2.846h3.948v1.154h-3.948z" fill="#ff1453" transform="translate(-230.772 -320.564)"/>
            <path id="Path_30" d="M292.34 320.736l-3.318 5.521V330h-1.245v-3.759l-3.306-5.507h1.392l2.548 4.349 2.538-4.349z" fill="#ff1453" transform="translate(-231.932 -320.564)"/>
        </g>
        <g id="lotos" transform="translate(-207.98 -47.848)">
            <g id="Group_1" transform="translate(191.98 183.839)">
                <path id="Path_1" d="M257.8 194.947a70.864 70.864 0 0 0-8.292 6.666 74.607 74.607 0 0 0-8.4-6.537 104.049 104.049 0 0 1 5.724-9.75 3.245 3.245 0 0 1 5.454 0 109.306 109.306 0 0 1 5.514 9.621z" fill="#8651a7" opacity="0.3" transform="translate(-215.755 -183.839)"/>
                <path id="Path_2" d="M204.486 244.716a45.7 45.7 0 0 1-12.668-20.426c-.527-1.871 1.052-3.309 3.009-3.341a67.977 67.977 0 0 1 7.229.231c.015 6.634.767 15.641 3.52 21.034a23.284 23.284 0 0 0 5.483 6.1s-4.644-1.855-6.573-3.598z" fill="#8651a7" opacity="0.3" transform="translate(-191.716 -202.05)"/>
                <path id="Path_3" d="M292.737 244.327a46.2 46.2 0 0 0 12.807-20.651c.533-1.891-1.064-3.345-3.042-3.377a72.046 72.046 0 0 0-7.466.246c-.015 6.707-.824 15.742-3.608 21.2a23.492 23.492 0 0 1-5.337 6.226s4.695-1.882 6.646-3.644z" fill="#8651a7" opacity="0.3" transform="translate(-237.647 -201.731)"/>
                <path id="Path_4" d="M226.192 202.057a45.78 45.78 0 0 0-3.2 8.923 77.36 77.36 0 0 0-8.926-2.7 49.258 49.258 0 0 1 .727-8.729 3.01 3.01 0 0 1 4.42-2.3c2.114 1.213 4.087 2.806 6.979 4.806z" fill="#8651a7" opacity="0.3" transform="translate(-202.593 -190.237)"/>
                <path id="Path_5" d="M277.055 201.267a45.918 45.918 0 0 1 3.25 8.975 79.668 79.668 0 0 1 9.078-2.791 48.949 48.949 0 0 0-.735-8.759 3.042 3.042 0 0 0-4.468-2.321c-2.14 1.216-4.198 2.873-7.125 4.896z" fill="#8651a7" opacity="0.3" transform="translate(-233.249 -189.798)"/>
                <path id="Path_6" d="M234.134 249.665c-.169.07-.262.116-.41.182-2.345 1.047-11.289 1.7-16.151-7.822-2.753-5.394-3.493-13.7-3.509-20.334a82.637 82.637 0 0 1 8.685 2.463 36.68 36.68 0 0 0-1.687 10.031c-.183 12.815 8.257 15.038 13.072 15.48z" fill="#8651a7" transform="translate(-202.593 -202.42)"/>
                <path id="Path_7" d="M261.545 249.352c.171.072.265.118.414.184 2.37 1.058 11.413 1.722 16.329-7.908 2.783-5.454 3.532-13.852 3.547-20.558a83.362 83.362 0 0 0-8.781 2.49 37.085 37.085 0 0 1 1.706 10.14c.185 12.963-8.348 15.2-13.215 15.652z" fill="#8651a7" transform="translate(-225.701 -202.116)"/>
                <path id="Path_8" d="M243.692 250.436c-5.2 1.018-14.059-1.513-13.874-14.475a31.427 31.427 0 0 1 1.747-9.261 41.379 41.379 0 0 1 6.833 3.079c-.409.6-.782 1.2-1.114 1.812-3.51 6.423-2.894 11.93-.53 15.07 1.856 2.466 4.94 3.164 6.938 3.775z" fill="#8651a7" transform="translate(-210.259 -204.88)"/>
                <path id="Path_9" d="M258.2 250.319c5.2 1.018 14.059-1.513 13.874-14.475a32.315 32.315 0 0 0-1.786-9.382 41.245 41.245 0 0 0-6.793 3.2c.408.6.781 1.2 1.114 1.812 3.51 6.423 2.894 11.93.53 15.07-1.857 2.466-4.939 3.165-6.939 3.775z" fill="#8651a7" transform="translate(-224.073 -204.763)"/>
                <path id="Path_10" d="M270.518 216.552a39.781 39.781 0 0 0-6.968 3.194 27.615 27.615 0 0 0-4.414-5.379 66.758 66.758 0 0 1 8.06-6.458 58.8 58.8 0 0 1 3.322 8.643z" fill="#8651a7" transform="translate(-224.529 -195.655)"/>
                <path id="Path_11" d="M233.662 216.552a39.786 39.786 0 0 1 6.969 3.194 46.379 46.379 0 0 1 4.466-5.331 67.634 67.634 0 0 0-8.112-6.506 58.8 58.8 0 0 0-3.323 8.643z" fill="#8651a7" transform="translate(-212.131 -195.655)"/>
                <path id="Path_12" d="M250.314 247.9c-6.041 0-11.132-7.324-5.816-17.05q.441-.808.985-1.6A32.065 32.065 0 0 1 250.1 224a31.98 31.98 0 0 1 4.614 5.251c.361.53.691 1.063.984 1.6 5.538 10.135-.637 16.823-5.384 17.049z" fill="#8651a7" transform="translate(-216.319 -203.552)"/>
                <path id="Path_13" fill="#8651a7" d="M244.5 234.5q.441-.808.985-1.6a32.041 32.041 0 0 1 4.616-5.251 31.978 31.978 0 0 1 4.614 5.251c.361.53.691 1.063.984 1.6a17.434 17.434 0 0 1 2.039 5.791 14.741 14.741 0 0 0-2.039-9.439c-.294-.539-.624-1.072-.984-1.6A31.978 31.978 0 0 0 250.1 224a32.041 32.041 0 0 0-4.616 5.251q-.542.795-.985 1.6a15.248 15.248 0 0 0-2.093 9.632 17.846 17.846 0 0 1 2.094-5.983z" opacity="0.1" transform="translate(-216.32 -203.552)"/>
            </g>
            <g id="Group_6" transform="translate(222.566 215.207)">
                <rect id="Rectangle_3" width="1.809" height="6.387" fill="#fff" rx=".905" transform="rotate(90 2.062 4.325)"/>
                <rect id="Rectangle_4" width="1.824" height="6.335" fill="#fff" rx=".912" transform="rotate(180 2.053 3.167)"/>
            </g>
        </g>
    </g>
</svg>
