<svg xmlns="http://www.w3.org/2000/svg" id="Group_35" width="94.263" height="67.067" viewBox="0 0 94.263 67.067">
    <defs>
        <style>
            .cls-1,.cls-2,.cls-3{fill:#8651a7}.cls-1{opacity:.3}.cls-2{opacity:.6}
        </style>
    </defs>
    <path id="Path_1" d="M264.251 199.359a98.373 98.373 0 0 0-11.495 9.314 103.534 103.534 0 0 0-11.648-9.134 145.631 145.631 0 0 1 7.935-13.623 4.479 4.479 0 0 1 7.561 0 153.054 153.054 0 0 1 7.647 13.443z" class="cls-1" transform="translate(-205.963 -183.839)"/>
    <path id="Path_2" d="M209.418 254.162a63.944 63.944 0 0 1-17.56-28.54c-.73-2.614 1.458-4.623 4.171-4.668a93.49 93.49 0 0 1 10.021.323c.021 9.269 1.063 21.853 4.879 29.39 1.627 3.213 5.773 7.1 7.6 8.526.002 0-6.436-2.593-9.111-5.031z" class="cls-1" transform="translate(-191.716 -194.548)"/>
    <path id="Path_3" d="M295.3 253.876a64.642 64.642 0 0 0 17.753-28.854c.739-2.643-1.474-4.673-4.217-4.719a99.08 99.08 0 0 0-10.349.344c-.021 9.371-1.142 22-5 29.615a32.749 32.749 0 0 1-7.4 8.7s6.513-2.624 9.213-5.086z" class="cls-1" transform="translate(-218.937 -194.361)"/>
    <path id="Path_4" d="M230.876 204.117a64.3 64.3 0 0 0-4.439 12.468 106.613 106.613 0 0 0-12.373-3.766 69.352 69.352 0 0 1 1.008-12.2c.513-2.953 3.523-4.7 6.127-3.208 2.934 1.689 5.664 3.911 9.677 6.706z" class="cls-1" transform="translate(-198.162 -187.601)"/>
    <path id="Path_5" d="M277.055 203.368a64.487 64.487 0 0 1 4.506 12.54 109.792 109.792 0 0 1 12.585-3.9 68.918 68.918 0 0 0-1.019-12.238c-.518-2.986-3.562-4.752-6.194-3.243-2.967 1.699-5.821 4.015-9.878 6.841z" class="cls-1" transform="translate(-216.331 -187.343)"/>
    <path id="Path_6" d="M241.885 260.777c-.235.1-.364.162-.568.254-3.25 1.462-15.649 2.381-22.389-10.93-3.816-7.537-4.842-19.142-4.864-28.412a113.846 113.846 0 0 1 12.04 3.441 51.619 51.619 0 0 0-2.339 14.015c-.254 17.916 11.446 21.014 18.12 21.632z" class="cls-2" transform="translate(-198.162 -194.766)"/>
    <path id="Path_7" d="M261.545 260.586c.238.1.368.164.574.257 3.286 1.478 15.822 2.406 22.636-11.05 3.858-7.62 4.9-19.354 4.917-28.724a114.86 114.86 0 0 0-12.172 3.479 52.192 52.192 0 0 1 2.365 14.169c.255 18.112-11.573 21.245-18.32 21.869z" class="cls-2" transform="translate(-211.857 -194.587)"/>
    <path id="Path_8" d="M249.052 259.865c-7.2 1.423-19.488-2.114-19.232-20.225a44.221 44.221 0 0 1 2.421-12.94 57.143 57.143 0 0 1 9.472 4.3c-.566.838-1.084 1.681-1.544 2.532-4.866 8.974-4.012 16.669-.735 21.057 2.572 3.446 6.847 4.422 9.618 5.276z" class="cls-3" transform="translate(-202.705 -196.212)"/>
    <path id="Path_9" d="M258.2 259.8c7.2 1.423 19.489-2.114 19.233-20.225a45.47 45.47 0 0 0-2.476-13.109 56.975 56.975 0 0 0-9.417 4.471c.566.838 1.083 1.681 1.544 2.532 4.866 8.974 4.012 16.669.734 21.057-2.573 3.441-6.847 4.416-9.618 5.274z" class="cls-3" transform="translate(-210.892 -196.143)"/>
    <path id="Path_10" d="M274.914 219.985a54.942 54.942 0 0 0-9.66 4.463 38.527 38.527 0 0 0-6.118-7.515 92.666 92.666 0 0 1 11.172-9.024 82.554 82.554 0 0 1 4.606 12.076z" class="cls-2" transform="translate(-211.162 -190.788)"/>
    <path id="Path_11" d="M233.662 219.985a54.949 54.949 0 0 1 9.66 4.463 64.688 64.688 0 0 1 6.191-7.448 93.891 93.891 0 0 0-11.246-9.09 82.554 82.554 0 0 0-4.605 12.075z" class="cls-2" transform="translate(-203.815 -190.788)"/>
    <path id="Path_12" d="M253.422 257.394c-8.374 0-15.431-10.234-8.063-23.822q.612-1.129 1.365-2.239a44.7 44.7 0 0 1 6.4-7.337 44.575 44.575 0 0 1 6.4 7.337c.5.741.958 1.486 1.365 2.239 7.673 14.162-.889 23.508-7.467 23.822z" class="cls-3" transform="translate(-206.297 -195.432)"/>
    <path id="Path_13" fill="#8651a7" d="M245.36 238.668q.612-1.129 1.366-2.239a44.658 44.658 0 0 1 6.4-7.337 44.574 44.574 0 0 1 6.4 7.337c.5.74.958 1.486 1.365 2.239a24.488 24.488 0 0 1 2.827 8.092c.586-3.648-.071-8.105-2.827-13.188-.407-.753-.865-1.5-1.365-2.239a44.575 44.575 0 0 0-6.4-7.337 44.658 44.658 0 0 0-6.4 7.337q-.751 1.111-1.366 2.239c-2.751 5.072-3.49 9.678-2.9 13.458a25.069 25.069 0 0 1 2.9-8.362z" opacity="0.1" transform="translate(-206.298 -195.432)"/>
</svg>
