<svg xmlns="http://www.w3.org/2000/svg" width="24" height="24" viewBox="0 0 24 24">
    <g transform="translate(-314 -22)">
        <g transform="translate(314 25.097)">
            <path d="M31.677 21.484a1.161 1.161 0 0 0-1.161-1.161H8.839a1.161 1.161 0 0 0 0 2.323h21.677a1.161 1.161 0 0 0 1.161-1.162z" transform="translate(-7.677 -12.581)"/>
            <path d="M31.677 12.452a1.161 1.161 0 0 0-1.161-1.161H8.839a1.161 1.161 0 0 0 0 2.323h21.677a1.161 1.161 0 0 0 1.161-1.162z" transform="translate(-7.677 -11.29)"/>
            <path d="M31.677 30.516a1.161 1.161 0 0 0-1.161-1.161H8.839a1.161 1.161 0 0 0 0 2.323h21.677a1.161 1.161 0 0 0 1.161-1.162z" transform="translate(-7.677 -13.871)"/>
        </g>
    </g>
</svg>
