<svg xmlns="http://www.w3.org/2000/svg" width="24" height="24" viewBox="0 0 24 24">
    <g transform="translate(-410 -8608)">
        <path d="M12.908 4.662a6.462 6.462 0 0 1 4.569-1.893H20.8a.923.923 0 0 1 .923.923v4.431a.923.923 0 0 1-.923.923h-3.323a.185.185 0 0 0-.185.185v2.4H20.8a.923.923 0 0 1 .9 1.147l-1.108 4.431a.923.923 0 0 1-.9.7h-2.4v7.938a.923.923 0 0 1-.923.923h-4.431a.923.923 0 0 1-.923-.923v-7.939h-2.4a.923.923 0 0 1-.923-.923v-4.431a.923.923 0 0 1 .923-.923h2.4v-2.4a6.461 6.461 0 0 1 1.893-4.569zm4.569-.046a4.615 4.615 0 0 0-4.615 4.615v3.323a.923.923 0 0 1-.923.923h-2.4v2.585h2.4a.923.923 0 0 1 .923.923v7.938h2.585v-7.938a.923.923 0 0 1 .923-.923h2.6l.646-2.585h-3.247a.923.923 0 0 1-.923-.923V9.231A2.031 2.031 0 0 1 17.477 7.2h2.4V4.615z" transform="translate(407.292 8605.23)"/>
    </g>
</svg>
