<svg xmlns="http://www.w3.org/2000/svg" width="36" height="36" viewBox="0 0 36 36">
    <g transform="translate(-1322 -4563)">
        <g>
            <path d="M10.154 11.86a1.3 1.3 0 0 0-1.917 1.145v16.473a1.3 1.3 0 0 0 2.6 0v-14.3l9.354 5.037a1.3 1.3 0 0 0 1.233 0l9.354-5.037v14.3a1.3 1.3 0 1 0 2.6 0V13.005a1.3 1.3 0 0 0-1.917-1.145L20.808 17.6z" transform="translate(1319.191 4560.192)"/>
            <path d="M30.017 6.454a103.4 103.4 0 0 0-18.417 0l-2.631.235A6.122 6.122 0 0 0 3.456 11.9a61.571 61.571 0 0 0 0 17.814 6.122 6.122 0 0 0 5.513 5.212l2.631.235a103.41 103.41 0 0 0 18.417 0l2.631-.235a6.122 6.122 0 0 0 5.513-5.212 61.571 61.571 0 0 0 0-17.814 6.122 6.122 0 0 0-5.513-5.212zm-18.186 2.59a100.8 100.8 0 0 1 17.954 0l2.631.235a3.521 3.521 0 0 1 3.17 3 58.966 58.966 0 0 1 0 17.061 3.521 3.521 0 0 1-3.17 3l-2.631.235a100.793 100.793 0 0 1-17.954 0L9.2 32.337a3.521 3.521 0 0 1-3.171-3 58.97 58.97 0 0 1 0-17.061 3.521 3.521 0 0 1 3.171-3z" transform="translate(1319.191 4560.192)"/>
        </g>
    </g>
</svg>
