<svg xmlns="http://www.w3.org/2000/svg" width="24" height="24" viewBox="0 0 24 24">
    <g transform="translate(-452 -8608)">
        <g transform="translate(448.774 8604.774)">
            <path d="M20.3 8.882a1.269 1.269 0 1 1 1.269 1.269A1.269 1.269 0 0 1 20.3 8.882z" />
            <path d="M15.226 9.2a6.027 6.027 0 1 0 6.027 6.027A6.027 6.027 0 0 0 15.226 9.2zM11.1 15.226a4.124 4.124 0 1 1 4.124 4.124 4.124 4.124 0 0 1-4.124-4.124z"/>
            <path d="M21.9 3.595a60.549 60.549 0 0 0-13.344 0A5.57 5.57 0 0 0 3.64 8.457a58.266 58.266 0 0 0 0 13.537 5.571 5.571 0 0 0 4.914 4.863 60.556 60.556 0 0 0 13.344 0 5.571 5.571 0 0 0 4.914-4.863 58.272 58.272 0 0 0 0-13.537A5.571 5.571 0 0 0 21.9 3.595zM8.766 5.486a58.647 58.647 0 0 1 12.921 0 3.667 3.667 0 0 1 3.235 3.192 56.362 56.362 0 0 1 0 13.1 3.668 3.668 0 0 1-3.235 3.192 58.656 58.656 0 0 1-12.921 0 3.667 3.667 0 0 1-3.236-3.197 56.363 56.363 0 0 1 0-13.1 3.667 3.667 0 0 1 3.236-3.187z"/>
        </g>
    </g>
</svg>
