<svg xmlns="http://www.w3.org/2000/svg" xmlns:xlink="http://www.w3.org/1999/xlink" width="60" height="60" viewBox="0 0 60 60"><defs><style>.a{fill:#fff;}.b{clip-path:url(#a);}</style><clipPath id="a"><rect class="a" width="60" height="60" transform="translate(36 247)"/></clipPath></defs><g class="b" transform="translate(-36 -247)"><path class="a" d="M13.028,9.984q-.05,0-.1,0a1,1,0,0,0-.834,1.445L23.746,35.7a21,21,0,1,0,32.488,0L67.886,11.431a1,1,0,1,0-1.8-.867L54.786,34.1a20.927,20.927,0,0,0-14.8-6.11c-.7,0-1.388.037-2.07.1l7.971-16.668a1,1,0,1,0-1.8-.863l-4.1,8.566-4.1-8.566a1,1,0,0,0-.869-.582q-.05,0-.1,0a1,1,0,0,0-.836,1.443l4.794,10.019-1.6,3.349h0l-.863.24-.324.834.094.34.043.092.242.187-.951,1.988A20.968,20.968,0,0,0,25.2,34.1L13.9,10.564A1,1,0,0,0,13.028,9.984Zm49.115.025-.855.271-.205.285-.043.09.016.9.728.523.853-.269.207-.287.043-.09-.018-.9Zm-12,0-.855.268-.207.285-.043.092.016.894.726.525.855-.269.205-.285.045-.09-.016-.9Zm-31.957.006-.865.238L17,11.089l.094.34.043.09.709.549.863-.236L19.035,11l-.094-.34-.043-.09Zm12,0-.863.238L29,11.091l.094.34.045.09.707.549.863-.24.326-.836-.094-.338-.043-.092Zm18.187,3.689-.853.269-.207.285-.043.09.016.9.726.523.853-.268.207-.287.043-.09-.016-.9Zm12,0-.853.269-.207.287-.043.09.018.9.726.523.855-.271.205-.285.043-.09-.016-.9Zm-28.415,0-.863.24-.324.834.094.34.043.09.709.549.863-.24.324-.834-.094-.34-.043-.09Zm-12,0-.863.236-.326.836.094.34.043.09.707.549.865-.238.326-.834-.094-.34-.043-.09ZM46.6,17.4l-.855.269-.205.285-.045.092.016.894.726.525.855-.269.207-.285.043-.092-.016-.894Zm12,.006-.853.269-.205.287-.043.09.016.894.728.523L59.1,19.2l.205-.285.043-.092-.016-.894Zm-24.871,0-.863.238-.326.836.094.338.043.092.709.547.863-.238.326-.836-.094-.34-.045-.09Zm-12.007,0-.863.238-.326.834.094.34.043.092.707.549.863-.238.326-.834-.094-.34-.043-.09Zm23.1,3.685-.853.268-.207.287-.043.09.016.9.726.523.855-.268.205-.287.043-.09-.014-.9Zm-9.318.006-.863.24-.324.834.094.34.043.09.709.549.863-.24.324-.834-.094-.34-.043-.09Zm21.331,0-.855.269-.205.285-.043.092.016.894.728.523.853-.269.207-.287.043-.09-.018-.9ZM23.5,21.11l-.865.238-.326.834.094.34.043.09.709.551.863-.238.326-.834-.094-.34-.043-.092Zm19.556,3.681-.855.269-.205.285-.043.09.014.9.728.523.853-.268.207-.285.043-.092-.016-.894Zm12.017.01-.853.271-.207.285-.043.09.018.9.726.523.855-.269.205-.287.043-.09-.016-.9Zm-29.805.008-.863.238-.326.834.094.34.043.09.709.549.863-.236.326-.836-.094-.34-.043-.09ZM53.3,28.5l-.853.269-.207.287-.043.09.018.9.726.523.855-.271L54,30.009l.043-.09-.016-.9Zm-26.267.008-.863.236-.326.836.094.34.043.09.707.549.865-.238.326-.834-.094-.34-.043-.09Zm12.958,1.486a19,19,0,1,1-19,19A18.98,18.98,0,0,1,39.991,29.993Zm0,3a1,1,0,1,0,1,1A1,1,0,0,0,39.991,32.992Zm-3.843.512a1,1,0,1,0,.928.74A1,1,0,0,0,36.148,33.5Zm7.715,0a1,1,0,1,0,.268.033A1,1,0,0,0,43.863,33.506ZM32.469,35a1,1,0,1,0,.888.5A1,1,0,0,0,32.469,35ZM47.44,35a1,1,0,1,0,.549.133A1,1,0,0,0,47.44,35ZM29.4,37.384a1,1,0,1,0,.693.293A1,1,0,0,0,29.4,37.384Zm21.21,0a1,1,0,1,0,.691.293A1,1,0,0,0,50.609,37.384Zm2.343,3.107a1,1,0,1,0,.89.5A1,1,0,0,0,52.952,40.49Zm-26,0a1,1,0,1,0,.547.133A1,1,0,0,0,26.957,40.492Zm11.712,1.777-3.226,2.2v2.777L38.5,45.177h.168V54.95h3.224V42.269ZM25.5,44.109a1,1,0,1,0,.268.033A1,1,0,0,0,25.5,44.109Zm29.019,0a1,1,0,1,0,.928.74A1,1,0,0,0,54.515,44.109Zm-29.52,3.88a1,1,0,1,0,1,1A1,1,0,0,0,24.994,47.989Zm29.993,0a1,1,0,1,0,1,1A1,1,0,0,0,54.987,47.989ZM25.543,51.871a1,1,0,1,0,.928.74A1,1,0,0,0,25.543,51.871Zm28.923,0a1,1,0,1,0,.268.033A1,1,0,0,0,54.466,51.873ZM26.98,55.485a1,1,0,1,0,.888.5A1,1,0,0,0,26.98,55.485Zm25.949,0a1,1,0,1,0,.547.133A1,1,0,0,0,52.929,55.489Zm-2.32,3.1a1,1,0,1,0,.693.293A1,1,0,0,0,50.609,58.592Zm-21.208,0a1,1,0,1,0,.691.293A1,1,0,0,0,29.4,58.594Zm18.062,2.38a1,1,0,1,0,.89.5A1,1,0,0,0,47.463,60.974Zm-15.02,0a1,1,0,1,0,.547.133A1,1,0,0,0,32.444,60.978Zm3.655,1.5a1,1,0,1,0,.268.033A1,1,0,0,0,36.1,62.476Zm7.811,0a1,1,0,1,0,.928.74A1,1,0,0,0,43.91,62.476Zm-3.919.51a1,1,0,1,0,1,1A1,1,0,0,0,39.991,62.985Z" transform="translate(26.01 237.017)"/></g></svg>