<svg xmlns="http://www.w3.org/2000/svg" width="24" height="24" viewBox="0 0 24 24">
    <g transform="translate(-494 -8608)">
        <g transform="translate(492.106 8606.106)">
            <path d="M12.025 9.676a.868.868 0 0 0-1.315.745v6.947a.868.868 0 0 0 1.315.745l5.789-3.473a.868.868 0 0 0 0-1.489zm3.655 4.218l-3.233 1.94v-3.88z"/>
            <path d="M19.718 5.374a74.677 74.677 0 0 0-11.649 0l-2.594.2a3.445 3.445 0 0 0-3.129 2.869 33.074 33.074 0 0 0 0 10.9 3.445 3.445 0 0 0 3.129 2.867l2.594.2a74.671 74.671 0 0 0 11.649 0l2.594-.2a3.445 3.445 0 0 0 3.129-2.867 33.077 33.077 0 0 0 0-10.9 3.445 3.445 0 0 0-3.129-2.867zM8.2 7.105a72.94 72.94 0 0 1 11.378 0l2.594.2a1.708 1.708 0 0 1 1.551 1.421 31.338 31.338 0 0 1 0 10.329 1.708 1.708 0 0 1-1.551 1.421l-2.594.2a72.937 72.937 0 0 1-11.378 0l-2.594-.2a1.708 1.708 0 0 1-1.551-1.421 31.337 31.337 0 0 1 0-10.329A1.708 1.708 0 0 1 5.61 7.308z"/>
        </g>
    </g>
</svg>
