<svg xmlns="http://www.w3.org/2000/svg" width="24" height="24" viewBox="0 0 24 24">
    <g transform="translate(-368 -706)">
        <g transform="translate(363.038 701.406)">
            <path d="M10.955 10.6a6.007 6.007 0 1 1 6.007 6.007 6.007 6.007 0 0 1-6.007-6.007zm6.007-3.887a3.887 3.887 0 1 0 3.887 3.887 3.887 3.887 0 0 0-3.887-3.886z" />
            <path d="M11.308 20.849a3.18 3.18 0 0 0-3.18 3.18v1.68a.052.052 0 0 0 .044.051 54.551 54.551 0 0 0 17.581 0 .052.052 0 0 0 .044-.051V24.03a3.18 3.18 0 0 0-3.18-3.18h-.482a.357.357 0 0 0-.11.017l-1.223.4a12.37 12.37 0 0 1-7.678 0l-1.223-.4a.357.357 0 0 0-.11-.017zm-5.3 3.18a5.3 5.3 0 0 1 5.3-5.3h.482a2.476 2.476 0 0 1 .768.122l1.223.4a10.249 10.249 0 0 0 6.362 0l1.223-.4a2.476 2.476 0 0 1 .768-.122h.482a5.3 5.3 0 0 1 5.3 5.3v1.68a2.172 2.172 0 0 1-1.822 2.144 56.674 56.674 0 0 1-18.265 0 2.172 2.172 0 0 1-1.822-2.144z"/>
        </g>
    </g>
</svg>
