<svg xmlns="http://www.w3.org/2000/svg" xmlns:xlink="http://www.w3.org/1999/xlink" width="150" height="156" viewBox="0 0 150 156">
    <defs>
        <radialGradient id="radial-gradient" cx="1.048" cy="-.458" r="1.193" gradientTransform="matrix(3.177 0 0 1 -1.089 0)" gradientUnits="objectBoundingBox">
            <stop offset="0"/>
            <stop offset="1" stop-color="#727272" stop-opacity="0"/>
        </radialGradient>
        <radialGradient id="radial-gradient-3" cx="-.278" cy="-.955" r="2.956" gradientTransform="matrix(.56 0 0 1 .22 0)" xlink:href="#radial-gradient"/>
        <style>
            .cls-1,.cls-2,.cls-3{fill:#8d8d8d}.cls-1{opacity:.3}.cls-2,.cls-6{opacity:.6}.cls-5,.cls-6{fill:#717171}.cls-7,.cls-8{opacity:.5}.cls-7{fill:url(#radial-gradient)}.cls-8{fill:url(#radial-gradient-3)}.cls-12{fill:#fff}
        </style>
    </defs>
    <g id="logo" transform="translate(-186.714 -183.839)">
        <g id="Group_5" transform="translate(186.714 183.839)">
            <g id="Group_1" transform="translate(5.266)">
                <path id="Path_1" d="M275.349 206.8a145.55 145.55 0 0 0-17.007 13.781 153.186 153.186 0 0 0-17.233-13.514 215.47 215.47 0 0 1 11.74-20.156 6.627 6.627 0 0 1 11.187 0 226.431 226.431 0 0 1 11.313 19.889z" class="cls-1" transform="translate(-189.108 -183.839)"/>
                <path id="Path_2" d="M217.908 270.1c-13.454-12.25-22.333-29.167-25.981-42.226-1.08-3.868 2.157-6.84 6.172-6.906a138.324 138.324 0 0 1 14.827.478c.032 13.714 1.573 32.333 7.219 43.484 2.407 4.754 8.541 10.512 11.246 12.615-.001-.005-9.527-3.845-13.483-7.445z" class="cls-1" transform="translate(-191.716 -181.894)"/>
                <path id="Path_3" d="M299.722 269.984c13.6-12.385 22.579-29.488 26.266-42.691 1.093-3.91-2.181-6.915-6.239-6.982a146.6 146.6 0 0 0-15.312.509c-.032 13.865-1.69 32.544-7.4 43.817-2.433 4.805-8.213 10.746-10.947 12.871.001.001 9.631-3.881 13.632-7.524z" class="cls-1" transform="translate(-186.733 -181.928)"/>
                <path id="Path_4" d="M238.939 207.591a95.139 95.139 0 0 0-6.568 18.447 157.74 157.74 0 0 0-18.306-5.572 102.61 102.61 0 0 1 1.491-18.045c.759-4.37 5.212-6.953 9.066-4.747 4.339 2.489 8.378 5.782 14.317 9.917z" class="cls-1" transform="translate(-190.536 -183.156)"/>
                <path id="Path_5" d="M277.055 206.912a95.412 95.412 0 0 1 6.666 18.553 162.446 162.446 0 0 1 18.62-5.771 101.969 101.969 0 0 0-1.508-18.106c-.766-4.418-5.27-7.03-9.165-4.8-4.388 2.512-8.61 5.943-14.613 10.124z" class="cls-1" transform="translate(-187.21 -183.203)"/>
                <path id="Path_6" d="M255.226 279.522c-.347.145-.538.24-.84.376-4.809 2.164-23.154 3.523-33.126-16.171-5.646-11.152-7.164-28.322-7.2-42.037a168.454 168.454 0 0 1 17.813 5.092 76.372 76.372 0 0 0-3.461 20.736c-.37 26.505 16.94 31.089 26.814 32.004z" class="cls-2" transform="translate(-190.536 -181.854)"/>
                <path id="Path_7" d="M261.545 279.536c.352.148.544.243.85.381 4.862 2.187 23.409 3.56 33.491-16.349 5.708-11.275 7.243-28.635 7.275-42.5a169.937 169.937 0 0 0-18.009 5.147 77.221 77.221 0 0 1 3.5 20.964c.376 26.798-17.124 31.433-27.107 32.357z" class="cls-2" transform="translate(-188.029 -181.887)"/>
                <path id="Path_8" d="M258.276 275.769c-10.655 2.1-28.834-3.128-28.455-29.924A65.428 65.428 0 0 1 233.4 226.7a84.548 84.548 0 0 1 14.014 6.364c-.838 1.24-1.6 2.487-2.285 3.747-7.2 13.278-5.936 24.663-1.088 31.154 3.812 5.097 10.137 6.541 14.235 7.804z" class="cls-3" transform="translate(-189.705 -181.592)"/>
                <path id="Path_9" d="M258.2 275.782c10.655 2.1 28.835-3.128 28.456-29.924a67.274 67.274 0 0 0-3.664-19.4 84.3 84.3 0 0 0-13.933 6.615c.837 1.24 1.6 2.487 2.285 3.747 7.2 13.278 5.936 24.663 1.087 31.154-3.807 5.101-10.131 6.545-14.231 7.808z" class="cls-3" transform="translate(-188.206 -181.604)"/>
                <path id="Path_10" d="M282.48 225.776a81.288 81.288 0 0 0-14.292 6.6 57 57 0 0 0-9.052-11.119 137.1 137.1 0 0 1 16.53-13.351c3.026 6.061 4.665 11.307 6.814 17.87z" class="cls-2" transform="translate(-188.156 -182.577)"/>
                <path id="Path_11" d="M233.662 225.776a81.3 81.3 0 0 1 14.293 6.6 95.707 95.707 0 0 1 9.159-11.021 138.914 138.914 0 0 0-16.638-13.449c-3.026 6.061-4.665 11.307-6.814 17.87z" class="cls-2" transform="translate(-189.502 -182.577)"/>
                <path id="Path_12" d="M258.771 273.41c-12.389 0-22.831-15.141-11.929-35.246q.9-1.67 2.019-3.312A66.133 66.133 0 0 1 258.329 224a65.953 65.953 0 0 1 9.464 10.856c.74 1.1 1.417 2.2 2.019 3.312 11.36 20.95-1.306 34.777-11.041 35.242z" class="cls-3" transform="translate(-189.047 -181.733)"/>
                <path id="Path_13" fill="#8d8d8d" d="M246.841 245.7q.9-1.67 2.02-3.312a66.075 66.075 0 0 1 9.467-10.856 65.952 65.952 0 0 1 9.464 10.856c.74 1.1 1.417 2.2 2.019 3.312a36.231 36.231 0 0 1 4.183 11.973c.866-5.4-.105-11.993-4.183-19.512-.6-1.113-1.279-2.216-2.019-3.312A65.953 65.953 0 0 0 258.328 224a66.075 66.075 0 0 0-9.467 10.856q-1.112 1.643-2.02 3.312c-4.07 7.5-5.163 14.319-4.292 19.911a37.091 37.091 0 0 1 4.292-12.379z" opacity="0.1" transform="translate(-189.047 -181.733)"/>
            </g>
            <g id="Group_3" transform="translate(0 107.993)">
                <path id="Path_14" d="M213.317 290.85v22.7h-6.08v-15.461l-6.88 11.283h-.683l-6.879-11.283v15.461h-6.081v-22.7a3.9 3.9 0 0 1 3.9-3.894 3.9 3.9 0 0 1 3.324 1.864l6.082 9.951 6.082-9.951a3.9 3.9 0 0 1 3.324-1.864 3.894 3.894 0 0 1 3.891 3.894z" class="cls-5" transform="translate(-186.714 -286.425)"/>
                <path id="Path_15" d="M222.395 307.7h10.642v5.849h-16.722v-26.593h16.532v5.851h-10.452v4.408h9.5v5.775h-9.5z" class="cls-5" transform="translate(-185.151 -286.425)"/>
                <path id="Path_16" d="M246.088 286.956a12.32 12.32 0 0 1 9.216 3.819 13.974 13.974 0 0 1 0 18.957 12.319 12.319 0 0 1-9.216 3.818h-10.641v-26.594zm0 20.745a6.782 6.782 0 0 0 5.112-2.033 8.466 8.466 0 0 0 0-10.828 6.778 6.778 0 0 0-5.112-2.033h-4.561V307.7z" class="cls-5" transform="translate(-184.141 -286.425)"/>
                <path id="Path_17" d="M276.479 314.109a12.2 12.2 0 0 1-6.783-1.767 9.618 9.618 0 0 1-3.857-4.807l5.244-3.038a5.646 5.646 0 0 0 5.587 3.685q3.61 0 3.61-2.165a2.043 2.043 0 0 0-1.159-1.843 21.333 21.333 0 0 0-4.351-1.539 19.366 19.366 0 0 1-2.926-1.026 12.23 12.23 0 0 1-2.452-1.5 6.025 6.025 0 0 1-1.824-2.336 7.851 7.851 0 0 1-.628-3.23 7.274 7.274 0 0 1 2.642-5.887 9.5 9.5 0 0 1 6.29-2.2 10.823 10.823 0 0 1 5.777 1.539 10.568 10.568 0 0 1 3.952 4.464l-5.13 3a5.907 5.907 0 0 0-1.787-2.3 4.651 4.651 0 0 0-2.812-.779 3.33 3.33 0 0 0-2.11.587 1.771 1.771 0 0 0-.741 1.425 2.117 2.117 0 0 0 .932 1.71 13.331 13.331 0 0 0 3.857 1.6q1.595.494 2.47.8a17.863 17.863 0 0 1 2.22.998 7.319 7.319 0 0 1 2.052 1.483 7.467 7.467 0 0 1 1.254 2.051 7.917 7.917 0 0 1-2.185 8.89 11.1 11.1 0 0 1-7.142 2.185z" class="cls-6" transform="translate(-182.536 -286.451)"/>
                <path id="Path_18" d="M298.11 286.956a9.066 9.066 0 0 1 6.612 2.66 9.077 9.077 0 0 1 0 12.918 9.058 9.058 0 0 1-6.612 2.66h-3.991v8.357h-6.08v-26.595zm0 12.538a3.014 3.014 0 0 0 2.317-.988 3.7 3.7 0 0 0 0-4.863 3.016 3.016 0 0 0-2.317-.986h-3.991v6.838z" class="cls-6" transform="translate(-181.364 -286.425)"/>
                <path id="Path_19" d="M324.266 313.55l-1.426-4.178h-10.233l-1.331 4.178h-6.651l9.045-26.594h7.753l9.065 26.594zm-9.815-9.877h6.449l-3.331-9.765z" class="cls-6" transform="translate(-180.488 -286.425)"/>
                <path id="Path_20" d="M186.735 297.726c0 .425-.009.822-.021 1.217v14.245h6.081v-15.462s-6.06-8.671-6.06 0z" class="cls-7" transform="translate(-186.714 -286.062)"/>
                <path id="Path_21" d="M212.267 297.726c0 .425.011.822.021 1.217v14.245h-6.08v-15.462s6.059-8.671 6.059 0z" class="cls-7" transform="translate(-185.685 -286.062)"/>
                <path id="Rectangle_1" d="M5.559 0h5.083v5.85H0v-.291A5.559 5.559 0 0 1 5.559 0z" class="cls-8" transform="translate(37.244 21.276)"/>
                <path id="Rectangle_2" d="M5.559 0h4.893v5.85H0v-.291A5.559 5.559 0 0 1 5.559 0z" class="cls-8" transform="translate(37.244 .531)"/>
                <g id="Group_2" opacity="0.5" transform="translate(61.947 6.382)">
                    <path id="Path_22" fill="#e30613" d="M245.616 292.518h-.062c.021-.003.046 0 .062 0z" transform="translate(-245.554 -292.515)"/>
                    <path id="Path_23" fill="url(#radial-gradient)" d="M247.628 292.76a6.406 6.406 0 0 1 3.037 1.775 8.466 8.466 0 0 1 0 10.828 6.776 6.776 0 0 1-5.09 2.032l1.676 5.743a12.126 12.126 0 0 0 7.518-3.711 12.9 12.9 0 0 0 2.424-3.488c.017-.129.038-.25.054-.383 1.148-9.51-5.961-12.096-9.619-12.796z" opacity="0.7" transform="translate(-245.553 -292.502)"/>
                </g>
            </g>
            <g id="Group_4" transform="translate(37.245 143.859)">
                <path id="Path_24" d="M226.274 332.442l-4.183-11.706h1.673l3.4 9.761 3.376-9.761h1.69l-4.2 11.706z" class="cls-5" transform="translate(-222.091 -320.519)"/>
                <path id="Path_25" d="M242.306 330.9a6.125 6.125 0 1 1 1.765-4.3 5.848 5.848 0 0 1-1.765 4.3zm-7.528-1.062a4.606 4.606 0 0 0 6.44 0 4.708 4.708 0 0 0 0-6.488 4.606 4.606 0 0 0-6.44 0 4.706 4.706 0 0 0 0 6.488z" class="cls-5" transform="translate(-221.571 -320.53)"/>
                <path id="Path_26" d="M249.809 320.736a5.2 5.2 0 0 1 3.972 1.7 6.251 6.251 0 0 1 0 8.311 5.2 5.2 0 0 1-3.972 1.7h-4.567v-11.711zm0 10.235a3.77 3.77 0 0 0 2.927-1.254 4.868 4.868 0 0 0 0-6.254 3.77 3.77 0 0 0-2.927-1.254H246.8v8.763z" class="cls-5" transform="translate(-220.869 -320.519)"/>
                <path id="Path_27" d="M266.425 330.9a6.122 6.122 0 1 1 1.766-4.3 5.846 5.846 0 0 1-1.766 4.3zm-7.528-1.062a4.608 4.608 0 0 0 6.441 0 4.708 4.708 0 0 0 0-6.488 4.608 4.608 0 0 0-6.441 0 4.708 4.708 0 0 0 0 6.488z" class="cls-5" transform="translate(-220.297 -320.53)"/>
                <path id="Path_28" d="M270.916 330.971h5.052v1.471h-6.607v-11.706h1.555z" class="cls-5" transform="translate(-219.595 -320.519)"/>
                <path id="Path_29" d="M278.67 330.971h5.438v1.471h-6.993v-11.706h6.909v1.472h-5.354v3.6h4.936v1.456h-4.936z" class="cls-5" transform="translate(-219.186 -320.519)"/>
                <path id="Path_30" d="M294.307 320.736l-4.148 6.975v4.732H288.6v-4.749l-4.132-6.958h1.74l3.185 5.495 3.172-5.495z" class="cls-5" transform="translate(-218.797 -320.519)"/>
            </g>
        </g>
        <g id="Group_6" transform="translate(254.712 248.685)">
            <rect id="Rectangle_3" width="3.74" height="13.1" class="cls-12" rx="1.777" transform="rotate(90 4.211 8.889)"/>
            <rect id="Rectangle_4" width="3.741" height="13.096" class="cls-12" rx="1.777" transform="rotate(180 4.21 6.548)"/>
        </g>
    </g>
</svg>
